<svg width="73" height="73" viewBox="0 0 73 73" fill="none" xmlns="http://www.w3.org/2000/svg">
<path fill-rule="evenodd" clip-rule="evenodd" d="M63.7837 11.3409L62.2826 11.1021L61.8888 9.63299L64.1533 9.02466L63.7837 11.3409ZM43.6783 32.374L42.3841 33.1709L42.381 33.1679L42.3765 33.1603L42.3612 33.136L42.3095 33.0493L42.127 32.7345C41.9142 32.362 41.7088 31.9852 41.5111 31.6045C40.885 30.4077 40.3394 29.1705 39.8777 27.9012C39.3637 26.4656 38.9226 24.8216 38.8542 23.2308C38.7873 21.6461 39.0823 19.926 40.2625 18.577C41.3225 17.3664 43.3209 16.2517 45.4212 15.2875C47.5975 14.2852 50.1586 13.3241 52.5843 12.4922C55.589 11.4662 58.6239 10.531 61.685 9.68774L61.837 9.64516L61.8903 9.62995L62.2857 11.1006L63.7868 11.3394L63.7776 11.3956L63.7518 11.5568C63.6 12.4899 63.4408 13.4216 63.2742 14.3521C62.869 16.6404 62.4269 18.9219 61.9481 21.1959C61.4067 23.7524 60.777 26.4321 60.1094 28.6753C59.8119 29.701 59.4632 30.7111 59.0646 31.7018C58.7178 32.5383 58.3072 33.3504 57.8084 33.9222C56.7407 35.1419 55.0785 35.5237 53.6261 35.621C52.1113 35.7229 50.4323 35.5389 48.9221 35.2712C47.5752 35.0288 46.2413 34.7191 44.9254 34.3435C44.3869 34.1918 43.8515 34.0296 43.3194 33.8568L43.2236 33.8234L43.1977 33.8142L43.1901 33.8127H43.1871L43.6783 32.374ZM43.6783 32.374L42.3841 33.1709L42.67 33.6348L43.1871 33.8127L43.6783 32.374ZM44.7003 31.1072C46.2578 31.5914 47.8428 31.9825 49.4468 32.2782C50.8521 32.5261 52.2573 32.666 53.4223 32.5869C54.6526 32.5048 55.2701 32.2037 55.518 31.9208C55.6761 31.7383 55.9347 31.3064 56.2541 30.5368C56.612 29.6441 56.9252 28.734 57.1924 27.81C57.8266 25.6808 58.4365 23.0908 58.9718 20.5678C59.4856 18.1267 59.9561 15.6768 60.3831 13.2191L59.9132 13.356C58.2266 13.8533 55.9484 14.5544 53.5713 15.3696C51.1897 16.1863 48.7366 17.1094 46.6911 18.0508C44.568 19.0272 43.1354 19.9138 42.5514 20.5815C42.0845 21.1138 41.8442 21.9335 41.8944 23.1C41.943 24.2604 42.2761 25.5789 42.7415 26.8732C43.2727 28.3377 43.9281 29.7541 44.7003 31.1072ZM15.6083 15.1688L15.2144 16.6379L13.7118 16.8767L13.3438 14.562L15.6083 15.1688ZM30.333 33.9253L31.6272 34.7207L31.6303 34.7176L31.6333 34.7115L31.6455 34.6918L31.6896 34.6188L31.8416 34.3602C32.5689 33.0903 33.1871 31.7608 33.6895 30.3863C34.1123 29.2061 34.4803 27.8389 34.5366 26.5066C34.5944 25.179 34.348 23.6977 33.3229 22.5266C32.4165 21.4894 30.739 20.5647 29.0357 19.78C27.2548 18.9603 25.1637 18.1755 23.1881 17.4987C20.7411 16.6639 18.2697 15.9026 15.7771 15.216L15.6524 15.181L15.6083 15.1688L15.2144 16.6379L13.7118 16.8767L13.7194 16.9223L13.7407 17.0547L13.8228 17.5505C14.2331 20.0105 14.695 22.4616 15.2083 24.9022C15.6493 26.9827 16.1634 29.1681 16.7078 31.0007C16.9816 31.9162 17.2675 32.7694 17.5671 33.4888C17.8515 34.1732 18.1998 34.8712 18.6378 35.3701C19.5807 36.4498 21.03 36.7692 22.23 36.8483C23.4953 36.9335 24.8838 36.7799 26.1233 36.5624C27.6798 36.2841 29.2146 35.8958 30.7162 35.4005L30.7938 35.3746L30.8166 35.367L30.8242 35.364L30.333 33.9253ZM30.333 33.9253L31.6272 34.7207L31.3413 35.186L30.8242 35.364L30.333 33.9253ZM29.3095 32.6569C29.4058 32.4845 29.5183 32.2752 29.6471 32.0288C30.009 31.3322 30.4592 30.3832 30.8257 29.3582C31.1983 28.321 31.4599 27.2792 31.4979 26.3774C31.5375 25.4664 31.3459 24.887 31.0341 24.528C30.6037 24.0383 29.4935 23.3387 27.7643 22.5433C26.1157 21.7845 24.1325 21.0377 22.2011 20.3762C20.5186 19.8016 18.824 19.2631 17.1185 18.761L17.1245 18.7991C17.3831 20.2591 17.7511 22.2301 18.1846 24.2725C18.618 26.3196 19.1123 28.4138 19.6233 30.1338C19.8803 30.9946 20.1327 31.7383 20.3761 32.3223C20.6346 32.9413 20.8293 33.2561 20.9266 33.3686C21.0513 33.5101 21.4544 33.7488 22.4338 33.8142C23.3478 33.8751 24.4641 33.7656 25.5956 33.5663C26.8514 33.3409 28.0918 33.0381 29.3095 32.6569ZM25.9788 47.155C25.5925 47.1763 25.404 47.231 25.3553 47.2523C24.6664 47.5641 22.5737 48.2941 20.7669 48.91C19.8392 49.2279 18.9495 49.526 18.2925 49.7465L18.25 49.7617V57.9788C18.5176 57.9666 18.8051 57.956 19.0986 57.9453C20.3578 57.8997 21.8559 57.8541 22.5053 57.8814C25.2306 57.9894 27.2776 58.6342 29.1726 59.2319L29.2136 59.2456C30.99 59.8053 32.6355 60.3193 34.7905 60.4821C35.3989 60.5277 35.9905 60.587 36.5425 60.6417H36.5501C38.6702 60.8547 40.0663 60.9611 41.1476 60.5687C41.9886 60.2631 45.0683 58.835 48.1739 57.2731C49.7099 56.5005 51.2155 55.7142 52.4124 55.0405C53.0132 54.7029 53.5226 54.4018 53.9135 54.1493C54.1072 54.0236 54.2633 53.9171 54.3819 53.8299L54.5188 53.7235L54.5614 53.687C54.7135 53.5334 54.8747 52.998 54.6131 52.4946C54.49 52.2592 54.2866 52.0758 54.0397 51.9776C53.7356 51.8452 53.2185 51.7433 52.3972 51.8787C50.5449 52.1829 48.332 53.0741 46.1223 53.9729L46.0919 53.9866C45.006 54.4276 43.9171 54.8702 42.9513 55.1926C42.0236 55.5013 40.994 55.7781 40.0967 55.7249C38.8649 55.6488 36.7038 55.3295 34.9213 55.0405C33.897 54.8749 32.874 54.7015 31.8523 54.5204L31.6546 54.4854L31.5846 54.4717L31.8736 51.4544L38.8238 51.538H38.839C38.9202 51.5293 39.0005 51.514 39.0793 51.4924C39.3196 51.4316 39.7317 51.281 40.2503 50.9145C40.41 50.8004 40.6199 50.5906 40.8161 50.3092C40.8972 50.1916 40.9661 50.077 41.0229 49.9655C40.1756 49.9109 39.3337 49.792 38.5044 49.6096C38.0529 49.5113 37.605 49.3972 37.1615 49.2674L37.1098 49.2522L28.5977 47.3573L28.5171 47.3436L28.1977 47.2949C27.8499 47.2438 27.5004 47.2047 27.1499 47.1778C26.7604 47.1451 26.3693 47.1375 25.9788 47.155ZM28.8958 45.8684L29.1711 44.3734L29.1984 44.378L37.8946 46.3125L37.9584 46.3322L37.9706 46.3368L38.0284 46.3535L38.2687 46.422C38.4801 46.4797 38.7843 46.5588 39.1462 46.6379C39.8853 46.7976 40.81 46.9451 41.6647 46.9451C42.5209 46.9451 43.4517 47.2645 43.9536 48.174C44.3824 48.9526 44.276 49.7952 44.1254 50.3518C43.9853 50.8438 43.777 51.3137 43.5064 51.7479C43.9698 51.5654 44.4595 51.3687 44.9756 51.1578L45.0699 51.1183C47.1656 50.2666 49.678 49.2446 51.903 48.8781C54.4884 48.4553 56.4274 49.383 57.3141 51.0985C58.0958 52.6117 57.9224 54.6071 56.7286 55.8207C56.429 56.1249 55.9834 56.4336 55.5575 56.7089C55.0151 57.052 54.4633 57.3801 53.9029 57.6928C52.6482 58.3985 51.0954 59.2091 49.5381 59.9923C46.4629 61.539 43.2236 63.0523 42.1833 63.4294C40.3796 64.0834 38.293 63.875 36.4391 63.6895L36.246 63.6697C35.6849 63.6122 35.1232 63.5615 34.5609 63.5176C32.0363 63.326 30.1018 62.7162 28.3346 62.1595L28.2966 62.1474C26.3955 61.5482 24.6831 61.0143 22.3836 60.9216C21.8787 60.9018 20.519 60.9383 19.2081 60.987C18.4698 61.0138 17.7317 61.0437 16.9937 61.0767L16.7976 61.0858L15.2068 61.1588V47.5687L16.5405 47.1261C17.6228 46.7664 18.7036 46.4024 19.783 46.0341C21.6749 45.3878 23.582 44.7171 24.1021 44.4829C24.6603 44.2304 25.2945 44.1483 25.8024 44.1179C26.3423 44.0875 26.8974 44.1103 27.3826 44.1468C27.9665 44.1934 28.548 44.266 29.1254 44.3643L29.1574 44.3703H29.1665L29.1695 44.3719H29.1726L28.8958 45.8684Z" fill="white"/>
<path fill-rule="evenodd" clip-rule="evenodd" d="M53.4574 20.1359C53.6091 20.2657 53.7339 20.4241 53.8244 20.6021C53.915 20.7802 53.9696 20.9743 53.9851 21.1734C54.0007 21.3725 53.9768 21.5728 53.915 21.7627C53.8531 21.9526 53.7545 22.1285 53.6246 22.2802C49.091 27.5697 43.4472 35.3214 40.9561 41.6222C40.8826 41.8079 40.7732 41.9774 40.6343 42.1209C40.4953 42.2643 40.3294 42.379 40.1461 42.4584C39.9628 42.5378 39.7656 42.5802 39.5659 42.5834C39.3662 42.5866 39.1678 42.5504 38.9821 42.4769C38.7963 42.4034 38.6269 42.2941 38.4834 42.1551C38.3399 42.0161 38.2252 41.8502 38.1459 41.6669C38.0665 41.4836 38.024 41.2865 38.0208 41.0867C38.0177 40.887 38.0539 40.6886 38.1273 40.5029C40.8086 33.7215 46.7216 25.6595 51.313 20.3016C51.5756 19.9955 51.949 19.8062 52.3511 19.7754C52.7533 19.7446 53.1512 19.8748 53.4574 20.1374M23.3905 25.0147C23.2336 25.1385 23.1027 25.292 23.0052 25.4664C22.9077 25.6408 22.8456 25.8327 22.8223 26.0311C22.799 26.2295 22.815 26.4306 22.8694 26.6229C22.9239 26.8151 23.0157 26.9947 23.1395 27.1515C26.5492 31.4782 30.2722 37.0156 32.0395 41.6085C32.1912 41.9751 32.4801 42.2679 32.8447 42.4244C33.2093 42.5809 33.6206 42.5888 33.9908 42.4463C34.3611 42.3038 34.661 42.0223 34.8267 41.6618C34.9923 41.3013 35.0105 40.8903 34.8773 40.5166C32.9443 35.4917 28.9947 29.6654 25.5272 25.2687C25.2777 24.9519 24.9126 24.7472 24.5122 24.6996C24.1118 24.652 23.7073 24.7653 23.3905 25.0147Z" fill="white"/>
<path d="M9.125 44.1042H18.25V63.8751H9.125V44.1042Z" fill="white"/>
</svg>
