<svg width="91" height="91" viewBox="0 0 91 91" fill="none" xmlns="http://www.w3.org/2000/svg">
<path d="M80.262 30.3333C74.4096 16.9411 61.0459 7.58331 45.5 7.58331C29.9542 7.58331 16.5886 16.9411 10.738 30.3333" stroke="#003A6C" stroke-width="2" stroke-linecap="round" stroke-linejoin="round"/>
<path d="M45.5 26.5416C41.8934 30.0679 39.0289 34.2804 37.0753 38.9309C35.1217 43.5813 34.1186 48.5757 34.125 53.6198C34.125 54.5677 34.1598 55.5081 34.2293 56.4408C37.8048 59.9638 40.6429 64.1636 42.578 68.7951C44.5131 73.4266 45.5064 78.3971 45.5 83.4166C45.4934 78.3968 46.4866 73.4259 48.4217 68.794C50.3568 64.1622 53.195 59.9621 56.7708 56.4389C56.8403 55.5087 56.875 54.569 56.875 53.6198C56.8814 48.5757 55.8783 43.5813 53.9248 38.9309C51.9712 34.2804 49.1067 30.0679 45.5 26.5416Z" stroke="#003A6C" stroke-width="2" stroke-linecap="round" stroke-linejoin="round"/>
<path d="M7.58325 45.5C7.58325 66.4413 24.5585 83.4166 45.4999 83.4166C45.5065 78.3968 44.5133 73.4259 42.5782 68.7941C40.6431 64.1622 37.8049 59.9621 34.2292 56.4389C27.1388 49.4191 17.5608 45.487 7.58325 45.5Z" stroke="#003A6C" stroke-width="2" stroke-linecap="round" stroke-linejoin="round"/>
<path d="M83.4167 45.5C83.4167 66.4413 66.4414 83.4166 45.5 83.4166C45.4934 78.3968 46.4866 73.4259 48.4217 68.7941C50.3568 64.1622 53.195 59.9621 56.7708 56.4389C63.8611 49.4191 73.4392 45.487 83.4167 45.5Z" stroke="#003A6C" stroke-width="2" stroke-linecap="round" stroke-linejoin="round"/>
</svg>
