<svg width="68" height="68" viewBox="0 0 68 68" fill="none" xmlns="http://www.w3.org/2000/svg">
<path d="M5.66663 33.9999H17M48.1666 33.9999H62.3333M8.49996 56.6949L8.52829 56.6638M17 45.3616L17.0283 45.3304M25.5 56.6949L25.5283 56.6638M34 45.3616L34.0283 45.3304M42.5 56.6949L42.5283 56.6638M51 45.3616L51.0283 45.3304M59.5 56.6949L59.5283 56.6638M25.5 36.8333C25.5 36.8333 28.05 26.2338 34 19.8333" stroke="white" stroke-width="2.5" stroke-linecap="round" stroke-linejoin="round"/>
<path d="M45.8602 6.34948L46.9199 17.3712C47.6084 24.5197 42.2477 30.8862 35.0992 31.5718C28.0867 32.2462 21.7316 27.1207 21.0572 20.1053C20.7328 16.7374 21.7595 13.3785 23.9114 10.7674C26.0633 8.15641 29.1643 6.50711 32.5322 6.18232L44.2821 5.04898C44.4713 5.03063 44.6624 5.04981 44.8442 5.10542C45.026 5.16104 45.1951 5.25199 45.3417 5.37307C45.4883 5.49415 45.6096 5.64297 45.6986 5.81101C45.7875 5.97905 45.8425 6.163 45.8602 6.35232" stroke="white" stroke-width="2.5" stroke-linecap="round" stroke-linejoin="round"/>
</svg>
