<svg width="69" height="69" viewBox="0 0 69 69" fill="none" xmlns="http://www.w3.org/2000/svg">
<path d="M11.2975 39.6198C9.74269 42.3706 6.90449 47.3938 11.9277 50.7426C13.5055 51.7868 15.2765 52.509 17.1303 52.8678C18.5425 53.0748 18.6161 55.2506 16.9555 55.2C15.1845 55.108 6.55949 54.3122 5.17489 47.84C4.45729 44.068 5.26689 40.6778 7.49329 37.007L10.6995 31.3352L4.69189 27.9174L20.6999 18.4V36.8L14.6923 33.6076L11.2975 39.6198ZM30.8199 9.35644C36.1329 6.46764 39.2057 11.3344 40.8985 13.9886L44.6061 19.7984L38.7825 23.5152L55.1999 32.1356L54.2937 13.616L48.4793 17.3282L44.9833 11.8588C42.5821 8.42724 40.8249 5.89264 36.5423 4.75184C29.0121 3.31204 24.3845 12.0474 24.4305 11.9922C23.6761 13.3124 25.4241 14.4762 26.5051 12.9582C27.6919 11.4862 29.1593 10.2626 30.8199 9.35644ZM61.1523 37.8166C60.7475 36.9426 58.6269 37.168 59.2249 39.0448C59.8275 40.8388 60.0759 42.7248 59.9471 44.6108C59.5193 50.646 53.7463 50.6 50.5999 50.6H43.6999V43.7L27.5999 52.9L43.6447 62.215L43.6677 55.2H50.5999C54.6939 55.269 57.9599 54.3904 60.7199 51.9202C66.2399 47.0396 61.1523 37.8166 61.1523 37.8166Z" fill="white"/>
</svg>
