<svg width="67" height="67" viewBox="0 0 67 67" fill="none" xmlns="http://www.w3.org/2000/svg">
<path d="M38.9531 4.23468L34.2287 29.0572L51.344 29.1148L28.0469 62.7655L32.7714 35.4567L15.6571 35.397L38.9531 4.23468ZM38.9564 0.04725C38.8433 0.04725 38.7303 0.0513721 38.6193 0.0596816C37.8802 0.119419 37.3902 0.366481 36.8093 0.756966C36.4821 0.975066 36.1872 1.23795 35.933 1.53793C35.8567 1.62799 35.7847 1.72162 35.7173 1.8185L12.2537 32.872C11.3272 34.1418 11.1911 35.8179 11.903 37.2186C12.6138 38.6194 14.0512 39.5071 15.6267 39.5186L27.714 39.6066L23.9138 61.9961C23.5526 63.9202 24.5786 65.8381 26.3844 66.6107C26.9092 66.8362 27.4745 66.9524 28.0458 66.952C29.3617 66.952 30.4431 66.3364 31.2545 65.2246L54.7474 31.5738C55.6739 30.3039 55.809 28.6258 55.0981 27.2271C54.3873 25.8264 52.9499 24.9386 51.3744 24.9272L39.2872 24.9062L43.0465 5.21973C43.1261 4.89742 43.1662 4.56662 43.1659 4.23462C43.1659 1.96918 41.3621 0.122494 39.105 0.0492129C39.0548 0.0471191 39.0056 0.0471191 38.9564 0.0471191L38.9564 0.04725Z" fill="white"/>
</svg>
