<svg width="106" height="53" viewBox="0 0 106 53" fill="none" xmlns="http://www.w3.org/2000/svg">
<path d="M80.2198 3.14913C80.9187 3.29105 81.5911 3.35278 81.7027 4.35253C81.7595 4.86174 82.4465 4.91383 82.9537 4.92757C83.8634 4.95238 84.1013 5.09943 84.0472 5.91051C84.0035 6.56553 84.2151 6.75933 84.8275 6.81326C85.6339 6.88422 86.3894 7.11411 87.238 6.78783C88.0017 6.49437 88.4385 6.88176 88.8011 7.80154C88.878 7.99636 88.9881 8.25619 89.2158 8.11572C90.2534 7.47546 91.4925 7.97421 92.6043 7.40922C93.3427 7.03393 94.395 7.20394 95.1359 7.91597C95.4942 8.2603 95.9193 8.42579 96.364 8.1231C96.8354 7.80215 97.2259 8.09747 97.4685 8.34704C98.2392 9.13967 99.1093 8.90404 99.9936 8.73546C100.112 8.7129 100.227 8.67025 100.343 8.63702C100.823 8.49942 100.373 9.60171 100.911 9.13188C101.197 8.88291 101.396 8.83082 101.719 8.79165C103.189 8.61303 104.272 9.44667 105.399 10.1856L104.86 11.4519C104.821 11.442 104.782 11.4329 104.743 11.4247C104.423 11.358 104.131 10.7985 104.035 10.9515C103.836 11.2674 103.435 11.5374 103.487 11.9792C103.554 12.546 103.273 12.6799 102.771 12.7039C102.324 12.7253 101.867 12.8044 101.521 13.1578C101.239 13.4459 100.905 13.4516 100.505 13.4363C99.4721 13.3965 98.9159 13.887 98.7868 14.9344C98.6541 16.0086 97.651 16.3941 97.1205 17.1506C96.949 17.3951 96.7952 17.0782 96.7032 16.9152C96.2821 16.1691 96.543 15.4756 96.9185 14.8209C97.1002 14.5043 97.3922 14.2525 97.6227 13.9619C97.7626 13.7857 98.1264 13.6725 97.9607 13.3985C97.8141 13.1561 97.4771 13.0903 97.1851 13.0979C96.8203 13.1075 96.5733 13.3577 96.4052 13.6418C96.1121 14.1368 95.7668 14.064 95.259 13.973C93.9352 13.7357 92.5647 13.5968 91.6426 14.9253C91.3986 15.277 90.6433 15.3283 90.8736 15.8995C91.0904 16.437 91.7579 16.0814 92.2101 16.2206C92.5442 16.3234 92.9945 16.2081 93.0095 16.6578C93.0255 17.1426 93.5189 17.6853 92.9685 18.1172C92.7976 18.2513 92.6434 18.3329 92.6203 18.5612C92.6086 18.6762 92.6125 18.8503 92.4718 18.8499C92.3387 18.8495 92.3532 18.6776 92.3395 18.5671C92.3295 18.4855 92.3364 18.402 92.327 18.3202C92.3007 18.0907 92.4018 17.8418 92.2236 17.6352C92.1615 17.8676 92.1402 18.1219 92.03 18.3288C91.5057 19.3167 90.9466 20.2498 89.7209 20.5471C88.5979 20.8195 88.4863 21.0494 88.7564 22.1835C88.8548 22.5969 88.8571 22.949 88.4137 23.0952C87.9851 23.2365 87.8516 22.8385 87.7037 22.5629C87.5897 22.3504 87.5257 22.1006 87.4886 21.8601C87.4342 21.5077 87.2386 21.4759 86.964 21.5768C86.7503 21.6554 86.5235 21.9216 86.3285 21.6062C86.1939 21.3886 86.1082 21.2446 85.914 21.5176C85.7977 21.681 85.6146 21.8824 85.6373 22.0415C85.6868 22.3877 85.9435 22.1076 86.1105 22.1238C86.5877 22.1705 87.0374 22.2273 86.4103 22.7899C86.1258 23.045 86.2109 23.3789 86.2762 23.7119C86.6092 25.4128 85.8802 26.6693 84.2658 27.246C83.8624 27.3902 83.3585 27.3656 83.1844 27.9343C83.0735 28.2966 82.9077 28.2659 82.7466 27.9031C82.5517 27.4644 82.2601 27.7452 82.0415 27.8982C81.7448 28.1061 81.7398 28.3666 82.0153 28.6161C82.1375 28.7269 82.2683 28.829 82.3825 28.9473C83.162 29.7543 82.8877 30.8841 81.827 31.3055C81.5346 31.4218 81.4896 31.2221 81.3725 31.056C81.0541 30.6042 80.5044 30.071 80.0955 30.4409C79.5678 30.9184 80.1259 31.4854 80.5457 31.8871C80.8545 32.1827 81.2181 32.5385 81.1398 32.9224C80.9603 33.8005 81.7382 34.3345 81.7876 35.1124C81.81 35.4631 82.1477 35.5156 82.4289 35.5935C83.2535 35.8222 84.0213 36.2947 84.9327 36.1526C85.0894 36.1282 85.3197 36.1911 85.3312 36.3597C85.3476 36.5988 85.0992 36.5299 84.954 36.543C83.9145 36.6363 82.8503 36.4612 81.9154 36.1624C81.1945 35.9321 80.5846 35.103 80.1162 34.411C79.7273 33.8347 79.3008 33.2846 78.8394 32.7645C78.7045 32.6125 78.4522 32.5165 78.6153 32.2866C78.7992 32.0274 79.0677 32.1293 79.2584 32.2973C79.5352 32.5411 79.7768 32.825 80.0367 33.0885C80.1228 33.1758 80.246 33.2714 80.3502 33.1834C80.4725 33.0805 80.3416 32.9685 80.2776 32.8791C79.6011 31.9325 79.3474 30.8823 79.4403 29.725C79.475 29.2935 79.4044 28.8616 78.7642 28.9998C78.2133 29.1188 78.2279 28.5932 78.0365 28.3225C77.2337 27.1863 76.9355 27.1572 75.9041 28.0782C75.6673 28.2897 75.4076 28.4757 75.1486 28.6594C74.2578 29.2917 74.0229 30.2283 74.4807 31.268C74.5744 31.4811 74.8041 31.7169 74.5504 31.9327C74.3166 32.1316 74.1195 31.88 73.8968 31.8039C72.869 31.4526 72.4818 30.5962 72.3405 29.6748C72.1299 28.3022 71.0967 27.5087 70.3582 26.5032C70.1687 26.245 69.8857 26.1905 69.5888 26.1854C69.2178 26.1788 68.8437 26.146 68.4764 26.1819C68.2477 26.2042 68.0302 26.171 67.8156 26.124C67.4498 26.0441 67.2328 26.5141 67.5312 26.7403C67.6735 26.8482 67.8279 26.9464 67.9596 27.0633C68.1967 27.2737 67.9526 27.4013 67.8837 27.5797C67.4481 28.7086 66.3618 28.9992 65.4285 29.428C64.8449 29.6961 64.2922 30.1013 63.6095 30.1415C63.4828 30.1489 63.3566 30.2156 63.3566 30.3603C63.3566 30.5558 63.5113 30.6501 63.6757 30.6649C64.0939 30.7026 64.4622 30.4746 64.8621 30.4108C65.4191 30.3222 65.6878 30.6999 65.4394 31.2063C64.9495 32.2056 64.3195 33.1275 63.4171 33.83C62.0353 34.9061 61.9036 35.3456 62.4219 36.9573C62.8279 38.2204 62.7804 38.4109 61.6789 39.2464C61.2587 39.5653 60.8986 39.8575 61.1075 40.461C61.1902 40.6998 61.2105 41.026 61.0128 41.1624C60.2226 41.7081 59.964 42.6158 59.4679 43.3541C58.6704 44.5409 57.4481 44.4839 56.2722 44.5733C55.9037 44.6014 55.6258 44.2359 55.5885 43.9502C55.4539 42.9222 54.9441 41.9864 54.5908 41.0798C54.0471 39.6846 53.6392 38.4818 54.1839 37.0108C54.3402 36.5886 54.1343 35.8911 53.8564 35.4809C53.3909 34.7937 53.1696 34.1014 53.1911 33.293C53.1979 33.0354 53.0578 32.7146 52.7982 32.7524C52.0903 32.8553 51.516 32.2032 50.9229 32.3367C50.2575 32.4866 49.5288 32.3555 48.9173 32.736C48.5065 32.9915 48.1431 32.8887 47.7691 32.6429C46.8298 32.0256 46.2976 31.0158 45.4781 30.2832C45.3922 30.2063 45.3403 30.0554 45.3608 29.942C45.6426 28.3817 45.1037 26.5875 46.5759 25.3634C47.2916 24.7683 47.5742 23.8563 48.2629 23.2464C48.552 22.9902 48.5654 22.6434 48.1259 22.472C47.8328 22.3576 47.5273 22.1929 47.6226 21.8765C47.7816 21.3492 47.4756 20.7934 47.7428 20.3109C47.9827 19.878 48.4487 19.9565 48.8568 19.9783C50.0731 20.0431 50.1843 19.9497 49.9681 18.7094C49.8766 18.184 50.0017 17.939 50.4507 17.6141C50.9713 17.2372 51.4689 16.7989 51.9982 16.4251C52.8497 15.8234 52.9458 15.5896 52.3378 14.6758C52.1475 14.3899 52.024 14.1102 51.949 13.7882C51.7402 12.8912 51.8809 12.5052 52.7276 12.1074C53.3185 11.8299 53.7614 11.4667 54.0213 10.8599C54.4726 9.80556 55.3422 9.20796 56.3715 8.81175C56.7939 8.64912 57.2353 8.53572 57.6606 8.37965C58.4184 8.10157 59.0656 7.97298 59.7526 8.69998C60.2048 9.17843 61.0675 9.10481 61.6662 9.49282C61.8696 9.62488 62.1858 9.64765 62.3132 9.82114C62.8115 10.4993 63.1768 10.8504 63.4598 9.67718C63.5248 9.40791 63.9553 9.31809 64.1874 9.59453C64.5401 10.0147 64.8578 9.9163 65.2581 9.68518C65.9295 9.29758 66.7084 9.49405 67.4315 9.35316C68.1989 9.20365 67.6955 8.87286 67.5966 8.5876L67.6104 8.57058C68.2141 8.69424 68.815 8.83513 69.4226 8.93439C69.7442 8.98689 69.9708 8.99468 70.0707 8.49121C70.2874 7.39835 70.7782 7.19225 71.9781 7.30525C72.4075 7.34565 72.8226 7.27161 73.2576 7.46377C73.5088 7.57472 73.9594 7.52591 74.0291 7.07966C74.1263 6.45725 74.4444 6.53743 74.9132 6.67484C75.3467 6.80178 75.9384 7.01896 75.9322 6.14389C75.9306 5.91461 76.214 5.87278 76.4131 5.8293C77.2878 5.63858 78.1036 5.23703 79.0465 5.27908C79.9124 5.31763 80.146 4.7428 79.6806 3.91736C79.9358 3.71515 80.0826 3.43563 80.2198 3.14913ZM52.4733 20.1926C51.5605 20.3538 50.9412 20.9044 50.5694 21.6978C50.3877 22.0856 50.2294 22.4334 49.8276 22.6244C49.6937 22.688 49.4222 22.6514 49.455 22.8262C49.4806 22.9623 49.7546 22.9338 49.9015 22.8826C50.6373 22.626 51.3696 22.3859 52.1583 22.3174C52.5892 22.2798 52.976 22.3418 53.3515 22.5136C53.7206 22.6826 53.6732 23.0317 53.6936 23.3631C53.7095 23.6206 53.9111 23.8354 54.1689 23.8487C54.995 23.8911 55.7821 24.5915 56.6571 23.9812C56.7921 23.887 57.0855 23.9065 57.25 23.9871C58.1602 24.434 59.1337 24.1239 60.069 24.2525C60.5272 24.3155 60.69 23.8669 60.7778 23.5343C60.885 23.1274 60.5549 23.1192 60.238 23.0973C59.9636 23.0782 59.679 22.8485 59.4296 22.8912C58.5707 23.038 58.1926 22.6814 58.1382 21.857C58.1273 21.6905 58.0262 21.5317 57.8193 21.5602C57.6801 21.5795 57.6922 21.7323 57.6395 21.8336C57.3353 22.4189 56.548 22.5194 56.1715 22.0215C56.0573 21.8705 56.0472 21.47 55.8813 21.5533C55.0264 21.9823 54.6482 21.1884 54.0785 20.9128C53.7044 20.7317 53.4719 20.6653 53.4343 21.2083C53.4144 21.4973 53.2528 21.8621 52.927 21.7661C52.4588 21.6283 52.8743 21.3037 52.8944 21.0586C52.9253 20.6913 53.1911 20.2024 52.4733 20.1926ZM55.7357 15.6936C56.3056 15.7233 56.2585 15.6934 56.49 15.3285C57.0337 14.4715 56.8181 13.6243 56.5343 12.7708C56.4545 12.5306 56.4863 12.0871 56.0462 12.2439C55.7111 12.3635 55.5013 12.7536 55.7185 13.0487C56.4525 14.047 55.4868 14.5289 55.0918 15.1327C54.8449 15.5102 54.3486 15.8931 53.9294 15.18C53.8681 15.0757 53.7268 14.9912 53.6275 15.0896C53.5564 15.1601 53.5281 15.3207 53.5479 15.4288C53.6788 16.1371 54.2368 15.9862 54.7138 15.9874C55.0817 15.9885 55.3149 15.5143 55.7357 15.6936ZM62.5166 20.6772C62.3427 19.9994 61.3813 20.058 61.2392 19.2804C61.2068 19.103 60.9644 19.5527 60.7919 19.6831C60.5188 19.8897 60.2429 19.9514 60.0737 19.6118C59.9353 19.3339 59.7864 19.167 59.5457 19.4206C59.2704 19.7106 58.9446 20.01 58.9975 20.4782C59.0311 20.7758 59.26 20.9456 59.5114 20.8909C60.3006 20.719 61.0315 20.8293 61.7765 21.1226C62.0886 21.2452 62.4305 21.098 62.5166 20.6772ZM61.7388 27.1107C61.4806 27.1664 61.4705 27.3541 61.457 27.5594C61.4172 28.1578 61.8475 28.5058 62.1639 28.9133C62.3074 29.0981 62.4549 29.4285 62.6922 29.3274C63.0347 29.1813 62.8189 28.845 62.7541 28.5911C62.6313 28.1088 62.2757 27.7561 62.0265 27.3443C61.9695 27.2495 61.846 27.195 61.7388 27.1107ZM0 16.5315C1.03134 15.899 2.0756 15.2943 3.22998 14.9046C3.37723 14.855 3.58189 14.7637 3.5659 14.5857C3.54744 14.3796 3.29868 14.4692 3.16825 14.3925C2.63689 14.08 2.08605 13.7947 1.58238 13.4422C0.960176 13.0066 0.989092 12.6461 1.62976 12.2558C1.76798 12.1715 1.93061 12.1279 2.08113 12.0631C2.2536 11.9886 2.6047 12.0399 2.53579 11.7854C2.47529 11.5618 2.17526 11.7731 1.98229 11.7622C1.82007 11.7532 1.64575 11.7624 1.49953 11.7052C1.21755 11.5949 0.968789 11.3847 1.01924 11.0639C1.08343 10.6556 1.44601 10.624 1.78582 10.6201C1.93717 10.6183 2.15414 10.7957 2.22141 10.6062C2.28396 10.4302 2.02474 10.4021 1.8941 10.3174C0.918135 9.68374 0.921826 9.5287 1.90497 8.95797C2.15373 8.8136 2.3867 8.63621 2.64776 8.52075C3.38994 8.19262 4.08741 7.9939 4.9633 8.30193C5.91261 8.63579 6.98024 8.61631 7.98164 8.82282C9.224 9.07897 10.4036 9.08492 11.6706 8.76294C12.8875 8.45369 14.192 8.68378 15.4126 9.11301C15.5593 9.16449 15.7473 9.2941 15.8614 9.12388C15.9645 8.96987 15.8386 8.80273 15.7006 8.70983C15.4945 8.5714 15.306 8.45512 15.2537 8.16801C15.1944 7.84276 15.0021 7.77016 14.7513 8.03984C14.4539 8.35955 14.096 8.35381 13.731 8.19488C13.3574 8.03225 13.0717 7.79354 13.3303 7.34278C13.4751 7.09033 13.6336 6.85982 13.6162 6.5483C13.5916 6.11128 13.9736 6.0151 14.1914 6.15496C14.8922 6.60449 15.7707 6.35532 16.4825 6.90534C17.0678 7.35775 17.876 7.49043 18.6482 7.01978C19.0938 6.74826 19.564 6.68817 19.4666 7.48941C19.4289 7.80051 19.5333 8.14012 19.7638 8.26214C20.3967 8.59704 20.9276 8.85523 20.0267 9.51045C19.8378 9.64785 19.9783 9.90666 20.2133 9.97331C20.4935 10.0527 20.8952 10.1078 20.9274 9.7506C20.9651 9.33203 21.1103 9.10481 21.437 8.86343C21.97 8.46968 21.8804 8.22933 21.1959 8.22215C20.6397 8.2162 20.4492 7.63994 20.0306 7.41045C20.5181 7.32268 20.7096 6.738 21.2352 6.70191C21.5213 6.68222 21.8047 6.62029 22.0888 6.57353C22.494 6.50688 22.7715 6.30508 22.8311 5.8699C22.8615 5.64924 22.8455 5.4458 22.5848 5.39392C22.213 5.32009 21.8861 5.09902 21.5506 5.63735C21.0769 6.39716 20.1383 5.76121 19.4822 6.10923L19.3122 5.65908C19.415 5.54998 19.4264 5.44109 19.3118 5.33219C19.3961 4.89455 19.0784 4.49998 19.2907 4.00923C19.6467 3.18605 19.7361 3.10197 20.4539 3.55683C20.668 3.69259 20.942 3.84558 20.8583 4.1091C20.7461 4.46143 20.4477 4.16283 20.2344 4.17719C19.9697 4.19503 19.7148 4.21882 19.7119 4.55105C19.709 4.87794 19.9504 4.93598 20.2236 4.93434C20.5113 4.9327 20.7998 4.961 21.0865 4.94562C21.6154 4.91732 21.9245 4.73787 21.4994 4.19011C21.3144 3.9516 21.0769 3.68828 21.3819 3.44752C21.6993 3.19671 21.9196 3.56114 22.0734 3.75514C22.227 3.94894 22.7657 3.94873 22.4468 4.48132C22.3502 4.64272 22.8615 4.75284 23.1226 4.81724C23.2475 4.848 23.3703 4.77171 23.4015 4.63246C23.4646 4.34966 23.3299 4.16119 23.0883 4.03302C23.05 4.01364 23.0134 3.99129 22.9786 3.96617C21.4528 2.8448 21.4711 2.49309 23.1094 1.52881C23.3929 1.36159 23.7 1.23824 24.0204 1.16295C25.6975 0.76305 27.4163 0.647592 29.1184 0.448461C29.8298 0.365199 30.5835 0.608831 31.3132 0.732903C31.5904 0.780071 32.075 0.894505 32.0818 1.00258C32.1017 1.31676 31.6653 1.30528 31.4703 1.50584C31.3595 1.61987 31.153 1.70108 31.2631 1.89262C31.3888 2.11103 31.6671 2.12149 31.7873 1.9603C32.5032 1.00115 33.5018 1.24375 34.4839 1.18264C35.2831 1.13301 36.0903 1.02781 36.9116 0.745207C37.816 0.433899 38.8947 0.343665 39.9109 0.262249C40.1145 0.246048 40.3764 0.361712 40.5187 0.271067C41.748 -0.51069 42.7758 0.652719 43.9234 0.597347C44.0602 0.590785 44.1656 0.706447 44.1217 0.843644C44.0889 0.946183 43.9827 1.09343 43.8992 1.1002C43.3258 1.14716 42.7496 1.15947 42.1745 1.19043C42.056 1.19679 41.9391 1.23575 41.8214 1.25975C41.8911 1.46093 42.0699 1.39223 42.1997 1.39203C43.428 1.38915 44.6539 1.56265 45.886 1.41499C46.1852 1.37911 46.619 1.33645 46.6778 1.78659C46.7242 2.14076 46.3477 2.20782 46.1028 2.34215C45.2226 2.82532 44.2411 3.25024 44.9154 4.56889C44.9997 4.73357 44.7809 4.88573 44.7846 5.0137C44.8178 6.15086 43.8238 7.03967 44.036 8.22523C44.0957 8.55868 43.8863 8.9065 43.5473 9.01109C42.8068 9.23954 42.2307 9.89231 41.385 9.8396C41.305 9.83468 41.2059 9.84022 41.144 9.88267C39.9332 10.7108 38.3209 11.1037 37.9155 12.8118C37.7614 13.4605 37.3816 13.5415 36.8023 13.3758C35.8846 13.1133 35.4307 12.415 34.9697 11.6611C34.4921 10.88 34.285 10.1729 35.0165 9.43929C35.1307 9.32486 35.1227 9.1813 34.963 9.0318C34.5981 8.69055 33.9534 7.57246 33.8566 7.20066C33.5598 6.06001 32.4241 5.12875 31.2988 5.4294C30.0554 5.76162 29.608 4.93393 28.9835 4.27891C28.7296 4.01272 28.9521 3.82651 29.1816 3.71187C29.5099 3.5476 29.8967 3.54863 30.2148 3.3216C30.4726 3.13765 30.49 2.98056 30.3585 2.70986C30.2199 2.42418 30.0501 2.52467 29.8622 2.59994C28.7448 3.04742 27.753 3.59559 27.3861 4.89558C27.2633 5.33137 26.9192 5.68698 26.8064 6.18614C26.7094 6.61557 26.1212 6.51775 25.7246 6.58214C25.58 6.60573 25.3296 6.46894 25.3169 6.66909C25.3075 6.81757 25.6079 6.74661 25.7367 6.82065C26.628 7.33211 27.7333 7.0208 28.623 7.66495C29.3313 8.17785 30.166 8.44671 30.5107 9.41099C30.6789 9.88164 31.3308 10.0519 31.8218 10.2582C32.0513 10.3546 32.3841 10.429 32.1335 10.7257C31.9372 10.9581 31.8441 11.5153 31.3191 11.2384C31.1423 11.1451 31.0107 10.9677 30.8546 10.8332C30.764 10.7551 30.6411 10.6507 30.5404 10.7389C30.4293 10.8361 30.5376 10.9571 30.6149 11.0451C30.7236 11.1689 30.8565 11.2737 30.9529 11.4056C31.1288 11.6463 31.5898 11.8715 31.2291 12.2031C30.957 12.4535 30.6143 12.8565 30.1535 12.6404C29.2456 12.2148 28.4322 11.5294 27.3201 11.7271C27.2147 11.7458 27.1111 11.6061 27.1093 11.4718C27.107 11.3215 27.2141 11.26 27.348 11.2493C27.5529 11.2329 27.7696 11.2628 27.9612 11.2058C28.487 11.0492 28.81 10.3993 28.6228 9.93086C28.4052 9.38679 27.0869 8.75413 26.4629 8.8257C26.0205 8.87656 26.3093 9.05067 26.2793 9.23872C26.195 9.76865 26.6173 10.6084 25.4894 10.6538C25.0888 10.67 25.4059 10.9999 25.5673 11.1494C25.8606 11.4212 26.5465 11.464 26.4662 11.8598C26.3897 12.2372 25.7209 11.6886 25.3819 12.0729C25.2408 12.2329 24.9777 12.2495 24.8091 12.1119C24.1475 11.5721 23.748 12.1324 23.3256 12.4671C22.0689 13.4629 22.1208 14.0134 23.5797 14.7164C23.9096 14.8753 24.2138 15.1144 24.5669 15.2003C25.4869 15.4245 26.2707 15.7674 26.5018 16.8198C26.5426 17.0052 26.7715 17.3412 27.0482 17.0815C27.2003 16.9386 27.2014 16.7003 27.0838 16.5278C26.7235 15.9987 26.7916 15.6476 27.4097 15.3771C27.6855 15.2565 27.6017 14.9389 27.4862 14.7184C27.2809 14.3267 27.3597 13.9135 27.3408 13.5068C27.2928 12.464 27.8785 12.0823 28.8176 12.5778C29.1746 12.7663 29.5854 12.9873 29.7853 13.3091C30.1208 13.8491 30.3846 14.129 31.0339 13.7264C31.4559 13.4648 31.7561 13.8665 31.8925 14.1934C32.1909 14.9085 32.7366 15.3691 33.292 15.8627C33.7148 16.2387 34.384 16.5762 33.9858 17.3807C33.857 17.6406 34.1478 17.698 34.3071 17.8055C34.584 17.9923 34.843 18.1992 34.9045 18.5556C34.9328 18.7195 34.8268 19.0084 34.8067 18.9929C34.3535 18.642 33.8123 18.976 33.3664 18.7972C33.0658 18.6766 33.049 18.3579 33.1615 18.047C33.3344 17.5694 33.084 17.5817 32.728 17.6699C32.4913 17.7285 32.2305 17.7661 31.9928 17.7302C31.136 17.6012 31.1842 17.8924 31.4446 18.5757C31.6758 19.1821 31.9124 19.1348 32.3435 18.8913C32.5451 18.7775 32.7573 18.8032 32.8517 19.0396C32.9413 19.2642 32.8014 19.5269 32.6302 19.5546C31.9877 19.6587 31.4631 20.4329 30.6998 19.8886C30.4701 19.725 30.0841 19.8493 30.0448 20.032C29.8889 20.7571 29.2778 20.9481 28.7737 21.2809C28.6785 21.3437 28.609 21.4722 28.5674 21.585C28.1964 22.5854 27.6663 23.4416 26.7873 24.1141C26.3406 24.4557 26.3117 25.0498 26.7701 25.541C26.995 25.782 27.0586 26.1146 26.7555 26.2881C26.4553 26.4597 26.413 26.0289 26.2328 25.8956C26.0406 25.7535 25.8782 25.5472 25.7564 25.3378C25.3973 24.7209 24.8458 24.6544 24.2585 24.8427C23.899 24.958 23.5518 25.0451 23.1771 25.0453C22.4396 25.0457 21.7813 25.0092 21.9524 26.1634C22.0162 26.5939 21.4005 27.0774 21.9637 27.6271C22.3738 28.0272 22.7444 28.2171 23.2618 27.8941C23.4363 27.7852 23.5996 27.6574 23.7761 27.5518C24.0333 27.3978 24.3532 27.2797 24.5985 27.4316C24.9748 27.665 24.6063 27.9585 24.5068 28.1609C24.1869 28.8132 24.2499 29.1512 25.0688 29.1444C25.5056 29.1409 25.7494 29.433 25.7595 29.8624C25.7689 30.2648 25.5983 30.7707 26.1128 30.9261C26.6495 31.0882 27.3308 31.1431 27.7495 30.8084C28.6511 30.088 29.5392 30.2406 30.5084 30.5443C30.7691 30.6259 31.0398 30.6645 31.3124 30.6823C32.8845 30.7861 33.7497 32.2708 35.193 32.6215C35.6852 34.3249 37.4442 34.0616 38.5766 34.7689C38.8701 34.9522 39.247 35.0464 39.5645 35.2422C40.1767 35.6204 40.3454 36.1058 39.8809 36.6757C39.4164 37.2456 39.2963 37.9132 39.0986 38.5881C38.7735 39.6973 38.5733 40.9787 36.9787 41.0796C36.5488 41.1068 36.3255 41.5113 36.1983 41.9429C35.6881 43.6754 35.5037 43.8582 33.632 44.5813C33.4868 44.6375 33.4448 44.6949 33.4923 44.8282C33.7864 45.6514 33.2227 45.8755 32.6261 45.9313C32.0685 45.9836 32.04 46.4473 31.8187 46.7491C31.4208 47.292 31.3281 48.0313 30.7351 48.4624C30.6981 48.4892 30.7396 48.7277 30.8103 48.7821C31.1938 49.0764 31.0238 49.2661 30.78 49.5725C29.9711 50.5896 29.9857 50.6454 30.7121 51.7036C30.8282 51.8726 31.0525 51.9985 30.6881 52.1212C29.7029 52.4526 28.778 51.9944 28.4048 51.0135C28.1135 50.2486 28.0963 49.4127 28.2998 48.6976C28.7245 47.2042 28.6625 45.6524 29.0235 44.1381C29.2997 42.9788 29.5226 41.6891 29.5411 40.427C29.5528 39.6372 29.2378 39.0292 28.6123 38.6594C27.92 38.2501 27.5319 37.6751 27.2711 36.9585C27.2018 36.7682 27.0773 36.5984 26.9897 36.4138C26.7586 35.9268 25.8403 35.7658 26.3673 34.9034C26.6524 34.4371 26.5271 33.7585 27.0523 33.3729C27.3904 33.1248 27.4077 32.7639 27.4271 32.3801C27.4481 31.9702 27.3492 31.8012 26.8983 31.7573C26.0827 31.6782 25.2277 31.5902 25.0267 30.5246C24.983 30.2931 24.7058 30.2676 24.5222 30.2305C23.5748 30.038 22.8275 29.409 21.7323 29.369C20.808 29.3354 19.5624 28.8663 19.0934 27.6353C18.8863 27.0916 18.6545 26.6964 17.7975 26.8699C17.0965 27.0118 16.6417 26.1302 16.4038 25.4914C16.0328 24.4957 15.5039 23.7312 14.6473 23.0456C13.7214 22.3047 13.4671 21.0873 13.4904 19.9042C13.5064 19.0958 13.5678 18.3307 12.6982 17.8908C12.513 17.797 12.4372 17.6463 12.4115 17.4043C12.3096 16.4446 12.2309 16.3908 11.2116 16.3098C10.8837 16.2838 10.8966 16.0053 10.776 15.8022C10.0347 14.555 9.09316 13.6315 7.52001 13.4615C6.94989 13.3998 6.59982 13.6938 6.14476 13.7818C5.6618 13.8751 5.08696 13.65 5.40442 14.5476C5.49814 14.813 5.08245 15.2147 4.74243 15.1048C4.12084 14.9036 3.82471 15.2366 3.50602 15.6316C3.43014 15.7258 3.33334 15.8707 3.24167 15.8742C2.11538 15.9171 1.18433 16.664 0.0721875 16.7454L0 16.5315ZM23.4136 7.32432C23.2116 7.35836 23.0098 7.39815 22.8697 7.5661C22.7099 7.75765 22.77 7.95863 22.9035 8.119C23.3358 8.63805 23.6572 9.28117 24.4219 9.4358C24.5704 9.46574 24.3834 9.91753 24.7035 9.83858C24.8598 9.80023 25.0208 9.56849 25.0774 9.39151C25.1504 9.16325 24.9426 9.00411 24.749 8.95633C24.0856 8.79268 23.8514 8.32284 23.7802 7.70843C23.7558 7.49863 23.6919 7.3034 23.4136 7.32432Z" fill="#003A6C"/>
</svg>
