<svg class="logo" version="1.0" xmlns="http://www.w3.org/2000/svg" width="1600px" height="379px" viewBox="0 0 16000 3790" preserveAspectRatio="xMidYMid meet">
<g id="layer101" fill="#005801" stroke="none">
 <path d="M1077 3639 c-167 -22 -352 -88 -474 -169 -86 -58 -186 -168 -222 -244 -69 -146 -90 -278 -98 -608 l-6 -248 411 0 410 0 4 293 c3 273 4 295 24 338 18 39 29 49 67 64 59 22 106 14 152 -26 56 -50 70 -102 69 -264 0 -157 -21 -272 -57 -326 -35 -52 -144 -138 -362 -286 -343 -234 -427 -296 -501 -368 -102 -101 -174 -234 -209 -389 -39 -168 -36 -509 4 -695 25 -113 53 -176 115 -259 99 -130 232 -208 461 -270 97 -26 109 -27 350 -26 247 0 252 1 366 31 204 54 346 129 442 233 30 32 64 78 76 102 52 108 81 313 81 570 l0 148 -403 0 -404 0 -6 -197 c-4 -109 -11 -214 -17 -234 -14 -49 -48 -78 -101 -85 -61 -7 -107 19 -139 82 -22 42 -25 64 -28 165 -3 97 0 129 18 190 19 64 29 80 83 134 34 33 98 82 142 109 44 27 127 78 185 114 207 127 418 287 524 397 90 93 155 231 187 399 40 204 42 581 4 771 -20 100 -71 208 -131 274 -86 96 -250 189 -424 241 -152 45 -411 62 -593 39z"></path>
 <path d="M7535 3636 c-236 -39 -421 -130 -556 -273 -109 -116 -175 -244 -205 -402 -26 -137 -37 -548 -31 -1246 7 -824 13 -896 93 -1074 97 -212 278 -363 529 -440 138 -42 205 -51 385 -51 204 0 315 19 480 82 266 102 461 346 510 640 31 188 38 1639 10 1953 -23 252 -105 435 -259 577 -114 105 -271 182 -461 224 -92 21 -393 27 -495 10z m285 -585 c41 -30 51 -64 61 -225 15 -222 6 -1946 -10 -2007 -22 -83 -88 -117 -164 -85 -29 12 -43 27 -60 63 l-22 48 0 1060 c0 1040 0 1061 20 1100 36 71 113 92 175 46z"></path>
 <path d="M12068 3640 c-147 -25 -330 -117 -447 -224 -84 -78 -180 -238 -214 -356 -40 -138 -42 -205 -42 -1135 0 -922 3 -995 41 -1178 49 -237 287 -464 574 -551 124 -37 196 -46 370 -46 175 0 257 10 374 44 179 52 295 117 421 237 177 169 231 344 242 797 l6 232 -441 0 -440 0 -5 -307 c-4 -326 -9 -363 -52 -403 -34 -32 -122 -35 -155 -5 -57 51 -55 1 -58 1100 -3 997 0 1105 30 1170 12 28 74 65 105 65 10 0 37 -9 61 -20 82 -37 102 -137 102 -532 l0 -238 -90 0 -90 0 0 -260 0 -260 515 0 515 0 0 905 0 905 -278 0 -278 0 -33 -102 c-18 -57 -34 -109 -37 -117 -3 -9 -21 8 -48 45 -118 162 -292 245 -511 243 -49 -1 -111 -5 -137 -9z"></path>
 <path d="M2890 2235 l0 -1345 -255 0 -255 0 0 -335 0 -335 955 0 955 0 0 335 0 335 -260 0 -260 0 0 1345 0 1345 -440 0 -440 0 0 -1345z"></path>
 <path d="M4480 1899 l0 -1681 603 5 c623 5 759 13 894 52 148 43 278 151 350 290 79 154 103 287 103 580 0 445 -62 575 -308 651 -42 13 -90 24 -105 24 -16 0 -26 4 -22 10 3 6 14 10 23 10 29 0 180 67 223 98 85 63 164 194 179 299 5 39 10 343 10 706 l0 637 -405 0 -405 0 0 -577 c0 -610 -8 -793 -38 -852 -24 -49 -70 -73 -153 -79 l-69 -5 0 757 0 756 -440 0 -440 0 0 -1681z m1040 -384 c72 -25 88 -74 97 -300 6 -173 -6 -289 -35 -339 -24 -40 -77 -65 -156 -73 l-66 -6 0 372 0 372 63 -7 c34 -4 78 -12 97 -19z"></path>
 <path d="M9080 1900 l0 -1680 372 2 372 3 92 285 c86 268 190 590 325 1005 l58 180 1 -737 0 -738 370 0 370 0 0 1680 0 1680 -387 -2 -387 -3 -37 -125 c-20 -69 -80 -271 -134 -450 -53 -179 -136 -458 -183 -620 l-87 -295 -3 748 -2 747 -370 0 -370 0 0 -1680z"></path>
 <path d="M13525 3558 c2 -13 25 -183 50 -378 25 -195 50 -382 55 -415 9 -56 94 -698 264 -1995 l71 -545 635 -3 636 -2 17 112 c9 62 53 358 97 658 44 300 92 615 105 700 13 85 61 400 105 700 122 830 169 1143 173 1168 l4 22 -452 0 -451 0 -18 -272 c-9 -150 -19 -285 -22 -300 l-6 -28 -152 0 -152 0 -25 298 -24 297 -458 3 -457 2 5 -22z m1239 -1210 c-22 -159 -74 -698 -115 -1183 -10 -125 -19 -183 -19 -129 0 10 -18 156 -40 324 -51 389 -97 786 -106 918 l-7 102 146 0 146 0 -5 -32z"></path>
 </g>
<g id="layer102" fill="#588b5a" stroke="none">
 <path d="M1213 3643 c15 -2 37 -2 50 0 12 2 0 4 -28 4 -27 0 -38 -2 -22 -4z"></path>
 <path d="M1313 3643 c15 -2 37 -2 50 0 12 2 0 4 -28 4 -27 0 -38 -2 -22 -4z"></path>
 <path d="M7683 3643 c15 -2 37 -2 50 0 12 2 0 4 -28 4 -27 0 -38 -2 -22 -4z"></path>
 <path d="M7783 3643 c15 -2 37 -2 50 0 12 2 0 4 -28 4 -27 0 -38 -2 -22 -4z"></path>
 <path d="M12163 3643 c9 -2 25 -2 35 0 9 3 1 5 -18 5 -19 0 -27 -2 -17 -5z"></path>
 <path d="M12233 3643 c9 -2 25 -2 35 0 9 3 1 5 -18 5 -19 0 -27 -2 -17 -5z"></path>
 <path d="M2895 2235 c0 -742 1 -1048 2 -678 2 369 2 977 0 1350 -1 373 -2 71 -2 -672z"></path>
 <path d="M4485 1900 c0 -927 1 -1306 2 -842 2 463 2 1221 0 1685 -1 463 -2 84 -2 -843z"></path>
 <path d="M9085 1900 c0 -927 1 -1306 2 -842 2 463 2 1221 0 1685 -1 463 -2 84 -2 -843z"></path>
 <path d="M12645 3480 c27 -27 51 -50 54 -50 3 0 -17 23 -44 50 -27 28 -51 50 -54 50 -3 0 17 -22 44 -50z"></path>
 <path d="M8511 3376 c30 -34 68 -80 84 -103 32 -50 44 -57 18 -12 -10 18 -49 64 -88 104 -46 47 -51 51 -14 11z"></path>
 <path d="M2070 3378 c24 -27 45 -48 47 -48 8 0 0 9 -44 50 l-48 45 45 -47z"></path>
 <path d="M11589 3383 l-34 -38 38 34 c34 33 42 41 34 41 -2 0 -19 -17 -38 -37z"></path>
 <path d="M6845 3180 c-9 -16 -13 -30 -11 -30 3 0 12 14 21 30 9 17 13 30 11 30 -3 0 -12 -13 -21 -30z"></path>
 <path d="M7660 3045 c-13 -14 -22 -26 -19 -28 2 -1 16 10 31 25 15 15 23 28 19 28 -4 0 -18 -11 -31 -25z"></path>
 <path d="M12468 3043 c17 -17 32 -37 32 -44 0 -7 3 -9 6 -6 10 9 -23 54 -48 68 -16 9 -13 3 10 -18z"></path>
 <path d="M1125 3019 c-9 -17 -15 -34 -13 -39 2 -5 11 9 20 30 20 47 15 53 -7 9z"></path>
 <path d="M14790 2995 c0 -12 -27 -15 -157 -18 l-158 -3 163 -2 c156 -2 162 -1 162 18 0 11 -2 20 -5 20 -3 0 -5 -7 -5 -15z"></path>
 <path d="M12533 2840 c0 -25 2 -35 4 -22 2 12 2 32 0 45 -2 12 -4 2 -4 -23z"></path>
 <path d="M1094 2605 c0 -132 2 -185 3 -117 2 68 2 176 0 240 -1 64 -3 9 -3 -123z"></path>
 <path d="M12233 2800 c0 -25 2 -35 4 -22 2 12 2 32 0 45 -2 12 -4 2 -4 -23z"></path>
 <path d="M7883 2795 c0 -22 2 -30 4 -17 2 12 2 30 0 40 -3 9 -5 -1 -4 -23z"></path>
 <path d="M283 2725 c0 -22 2 -30 4 -17 2 12 2 30 0 40 -3 9 -5 -1 -4 -23z"></path>
 <path d="M2253 2720 c0 -25 2 -35 4 -22 2 12 2 32 0 45 -2 12 -4 2 -4 -23z"></path>
 <path d="M11362 2720 c0 -19 2 -27 5 -17 2 9 2 25 0 35 -3 9 -5 1 -5 -18z"></path>
 <path d="M1413 2665 c0 -22 2 -30 4 -17 2 12 2 30 0 40 -3 9 -5 -1 -4 -23z"></path>
 <path d="M8753 2645 c0 -22 2 -30 4 -17 2 12 2 30 0 40 -3 9 -5 -1 -4 -23z"></path>
 <path d="M11363 2600 c0 -25 2 -35 4 -22 2 12 2 32 0 45 -2 12 -4 2 -4 -23z"></path>
 <path d="M6743 2460 c0 -47 2 -66 4 -42 2 23 2 61 0 85 -2 23 -4 4 -4 -43z"></path>
 <path d="M1314 2398 l-29 -33 33 29 c30 28 37 36 29 36 -2 0 -16 -15 -33 -32z"></path>
 <path d="M8765 1900 c0 -289 1 -407 2 -262 2 144 2 380 0 525 -1 144 -2 26 -2 -263z"></path>
 <path d="M5612 2350 c0 -19 2 -27 5 -17 2 9 2 25 0 35 -3 9 -5 1 -5 -18z"></path>
 <path d="M12360 2030 l0 -260 518 2 517 3 -512 2 -513 3 0 250 0 249 88 4 87 3 -92 2 -93 2 0 -260z"></path>
 <path d="M1033 2189 c-59 -41 -54 -48 5 -8 58 40 57 39 46 39 -5 -1 -28 -14 -51 -31z"></path>
 <path d="M6180 1910 c-19 -11 -31 -19 -27 -20 11 0 67 29 67 35 0 7 -1 7 -40 -15z"></path>
 <path d="M485 1788 l-50 -53 53 50 c28 27 52 51 52 52 0 8 -9 -1 -55 -49z"></path>
 <path d="M14702 1770 c0 -19 2 -27 5 -17 2 9 2 25 0 35 -3 9 -5 1 -5 -18z"></path>
 <path d="M14692 1660 c0 -19 2 -27 5 -17 2 9 2 25 0 35 -3 9 -5 1 -5 -18z"></path>
 <path d="M5355 1170 c0 -206 1 -291 2 -188 2 104 2 272 0 375 -1 104 -2 19 -2 -187z"></path>
 <path d="M5566 1490 c6 -8 16 -24 22 -35 6 -11 12 -15 12 -8 0 7 -10 22 -22 35 -13 13 -18 17 -12 8z"></path>
 <path d="M12512 1228 l3 -233 2 227 3 228 438 3 437 2 -442 3 -443 2 2 -232z"></path>
 <path d="M1303 1399 c-35 -22 -46 -37 -15 -20 22 13 58 40 52 41 -3 0 -20 -10 -37 -21z"></path>
 <path d="M6743 1335 c0 -44 2 -61 4 -37 2 23 2 59 0 80 -2 20 -4 1 -4 -43z"></path>
 <path d="M1161 1285 c-22 -24 -41 -48 -41 -51 0 -4 1 -5 3 -3 2 2 23 25 47 52 23 26 40 47 38 47 -3 0 -24 -20 -47 -45z"></path>
 <path d="M11363 1260 c0 -25 2 -35 4 -22 2 12 2 32 0 45 -2 12 -4 2 -4 -23z"></path>
 <path d="M8752 1150 c0 -19 2 -27 5 -17 2 9 2 25 0 35 -3 9 -5 1 -5 -18z"></path>
 <path d="M11362 1140 c0 -19 2 -27 5 -17 2 9 2 25 0 35 -3 9 -5 1 -5 -18z"></path>
 <path d="M253 1090 c0 -25 2 -35 4 -22 2 12 2 32 0 45 -2 12 -4 2 -4 -23z"></path>
 <path d="M8752 1070 c0 -19 2 -27 5 -17 2 9 2 25 0 35 -3 9 -5 1 -5 -18z"></path>
 <path d="M12233 1005 c0 -27 2 -38 4 -22 2 15 2 37 0 50 -2 12 -4 0 -4 -28z"></path>
 <path d="M1073 980 c0 -30 2 -43 4 -27 2 15 2 39 0 55 -2 15 -4 2 -4 -28z"></path>
 <path d="M7882 950 c0 -19 2 -27 5 -17 2 9 2 25 0 35 -3 9 -5 1 -5 -18z"></path>
 <path d="M1362 930 c0 -19 2 -27 5 -17 2 9 2 25 0 35 -3 9 -5 1 -5 -18z"></path>
 <path d="M7640 793 c0 -6 9 -21 21 -34 l20 -24 -17 30 c-24 39 -24 40 -24 28z"></path>
 <path d="M12461 756 l-24 -31 28 27 c16 15 27 29 24 31 -2 3 -15 -10 -28 -27z"></path>
 <path d="M8564 483 c-15 -20 -23 -33 -16 -29 13 8 56 66 49 66 -3 0 -17 -17 -33 -37z"></path>
 <path d="M11585 430 c21 -22 41 -40 44 -40 3 0 -13 18 -34 40 -21 22 -41 40 -44 40 -3 0 13 -18 34 -40z"></path>
 <path d="M6219 423 l-34 -38 38 34 c34 33 42 41 34 41 -2 0 -19 -17 -38 -37z"></path>
 <path d="M6985 420 c21 -22 41 -40 44 -40 3 0 -13 18 -34 40 -21 22 -41 40 -44 40 -3 0 13 -18 34 -40z"></path>
 <path d="M430 417 c0 -2 15 -16 33 -33 l32 -29 -29 33 c-28 30 -36 37 -36 29z"></path>
 <path d="M8430 349 c-35 -31 -35 -31 -3 -9 18 11 35 25 38 30 10 16 2 11 -35 -21z"></path>
 <path d="M5468 223 c12 -2 32 -2 45 0 12 2 2 4 -23 4 -25 0 -35 -2 -22 -4z"></path>
 <path d="M1348 153 c12 -2 30 -2 40 0 9 3 -1 5 -23 4 -22 0 -30 -2 -17 -4z"></path>
 <path d="M7878 153 c12 -2 30 -2 40 0 9 3 -1 5 -23 4 -22 0 -30 -2 -17 -4z"></path>
 <path d="M12183 153 c9 -2 25 -2 35 0 9 3 1 5 -18 5 -19 0 -27 -2 -17 -5z"></path>
 </g>

</svg>